<svg width="360" height="82" viewBox="0 0 360 82" fill="none" xmlns="http://www.w3.org/2000/svg">
<path d="M359.675 40.2404C360.057 38.3383 360.156 34.9514 359.675 33.3837C358.452 29.9462 354.926 27.0039 349.906 27.0039H347.246C345.866 26.9625 344.494 27.2328 343.218 27.7971C341.942 28.3613 340.791 29.2069 339.84 30.2789L338.188 27.0039H327.763L320.198 65.1215H333.033L337.964 40.2901C338.35 38.3424 338.717 37.9785 340.539 37.9785H345.173C346.995 37.9785 347.219 38.3383 346.833 40.2901L341.902 65.1215H354.748L359.675 40.2901V40.2404Z" fill="#FFF5F5"/>
<path d="M145.952 40.2725L141.025 65.104H128.191L133.118 40.2725C133.504 38.3207 133.28 37.9609 131.461 37.9609H126.828C125.021 37.9609 124.642 38.3207 124.26 40.2229C124.26 40.2229 124.26 40.2559 124.26 40.2725L119.333 65.104H106.487L111.418 40.2725C111.804 38.3207 111.58 37.9609 109.757 37.9609H105.124C103.302 37.9609 102.935 38.3248 102.549 40.2725L97.618 65.104H84.7834L92.3475 26.9863H102.773L104.425 30.2613C105.376 29.1894 106.527 28.3437 107.803 27.7795C109.078 27.2152 110.451 26.945 111.831 26.9863H114.491C119.511 26.9863 122.897 29.3226 124.109 33.2717C126.353 28.8802 129.604 26.9863 133.531 26.9863H136.195C143.736 26.9863 147.57 32.2007 145.952 40.2725Z" fill="white"/>
<path d="M185.093 40.2724L182.803 51.8177C181.201 59.8895 175.293 65.1039 167.745 65.1039H158.022C150.485 65.1039 146.651 59.8853 148.254 51.8136L150.543 40.2724C152.142 32.2006 158.049 26.9862 165.602 26.9862H175.34C182.861 26.9862 186.699 32.2006 185.093 40.2724ZM172.247 40.2724C172.633 38.3206 172.409 37.9609 170.59 37.9609H165.957C164.135 37.9609 163.768 38.3247 163.382 40.2724L161.088 51.8136C160.702 53.7653 160.93 54.1251 162.748 54.1251H167.382C169.2 54.1251 169.571 53.7612 169.957 51.8136L172.247 40.2724Z" fill="white"/>
<path d="M319.616 40.286L317.327 51.8313C315.724 59.9031 309.817 65.1175 302.268 65.1175H292.546C285.009 65.1175 281.175 59.899 282.777 51.8272L285.067 40.286C286.665 32.2142 292.573 26.9998 300.125 26.9998H309.863C317.385 26.9998 321.223 32.2142 319.616 40.286ZM306.77 40.286C307.156 38.3342 306.932 37.9745 305.114 37.9745H300.48C298.658 37.9745 298.291 38.3384 297.905 40.286L295.612 51.8272C295.225 53.779 295.453 54.1387 297.272 54.1387H301.905C303.724 54.1387 304.095 53.7748 304.481 51.8272L306.77 40.286Z" fill="white"/>
<path d="M265.193 37.2373C264.723 39.4042 263.589 41.3403 261.973 42.737L255.436 48.5262C253.868 49.9377 251.896 50.7316 249.848 50.7757H240.798L240.593 51.7971C240.207 53.7489 240.431 54.1086 242.254 54.1086H261.837L259.66 65.0874H237.512C229.975 65.0874 226.141 59.8689 227.743 51.7971L230.033 40.2559C231.635 32.1841 237.543 26.9697 245.092 26.9697H254.837C262.355 26.9863 266.243 31.9278 265.193 37.2373ZM251.748 40.2725C252.134 38.3207 251.91 37.9609 250.088 37.9609H245.454C243.64 37.9568 243.254 38.3248 242.867 40.2725L242.095 44.2463H249.74C250.083 44.2311 250.412 44.0965 250.677 43.8629C250.942 43.6293 251.128 43.3094 251.208 42.952L251.748 40.2725Z" fill="white"/>
<path d="M279.622 58.6324C278.911 62.2093 276.274 65.108 272.286 65.108C268.297 65.108 266.814 62.2134 267.525 58.6324C268.235 55.0513 270.872 52.1609 274.861 52.1609C278.85 52.1609 280.321 55.0513 279.622 58.6324Z" fill="#4CD62B"/>
<path d="M34.6965 12.9474H50.983L37.4341 82H21.1477L34.6965 12.9474Z" fill="white"/>
<path d="M58.593 12.9474H74.8794L64.323 67.0515H48.0327L58.593 12.9474Z" fill="white"/>
<path d="M10.5603 12.9474H26.8467L16.2903 67.0515H0L10.5603 12.9474Z" fill="white"/>
<path d="M232.62 26.9862L208.824 65.1038H195.696L187.016 26.9862H201.074L204.854 52.0162L218.562 27.0069L232.62 26.9862Z" fill="white"/>
</svg>
